<svg width="508.651" height="508.651" xmlns="http://www.w3.org/2000/svg">

 <g>
  <title>background</title>
  <rect fill="none" id="canvas_background" height="602" width="802" y="-1" x="-1"/>
 </g>
 <g>
  <title>Layer 1</title>
  <path id="svg_1" fill="#00b248" d="m417.594,184.067l-56.311,-120.758c-11.718,-25.128 -41.694,-36.037 -66.822,-24.321c-25.188,11.745 -36.068,41.632 -24.322,66.822l56.311,120.758c2.715,5.822 8.485,9.242 14.512,9.242c4.956,0 2.083,0.674 68.894,-30.48c8.003,-3.734 11.471,-13.256 7.738,-21.263z"/>
  <path id="svg_2" fill="#00b248" d="m214.191,38.988c-25.127,-11.718 -55.104,-0.807 -66.822,24.321l-56.31,120.758c-3.732,8.005 -0.268,17.529 7.739,21.263c66.9,31.196 63.969,30.48 68.894,30.48c6.025,0 11.797,-3.421 14.512,-9.242l56.311,-120.758c11.743,-25.188 0.866,-55.076 -24.324,-66.822z"/>
  <path id="svg_3" fill="#66ffa6" d="m468.881,167.536l-429.11,0c-25.756,0 -44.733,24.121 -38.618,49.175l52.713,216.036c5.979,24.508 27.774,41.625 53.001,41.625l294.918,0c25.227,0 47.021,-17.117 53.001,-41.625l52.713,-216.036c6.107,-25.021 -12.828,-49.175 -38.618,-49.175z"/>
  <path id="svg_5" fill="#00b248" d="m468.881,167.536l-429.11,0c-25.756,0 -44.733,24.121 -38.618,49.175l43.192,177.017c34.52,0.168 74.917,-8.359 122.06,-29.719c126.741,-57.426 235.932,-49.906 312.222,-28.97l28.872,-118.327c6.107,-25.022 -12.828,-49.176 -38.618,-49.176z"/>
  <path id="svg_6" fill="#66ffa6" d="m468.881,167.536l-429.11,0c-24.275,0 -42.591,21.431 -39.399,45.009c25.307,6.549 56.734,18.346 93.905,39.079c91.007,50.76 318.709,27.507 407.93,-13.229l5.291,-21.683c6.108,-25.022 -12.827,-49.176 -38.617,-49.176z"/>
  <g fill-opacity="0" id="svg_7" fill="#2e58ff">
   <path id="svg_8" d="m468.881,167.536l-58.995,0l-48.603,-104.227c-11.718,-25.128 -41.694,-36.037 -66.822,-24.321c-25.188,11.745 -36.068,41.632 -24.322,66.822l28.784,61.727l-89.193,0l28.784,-61.727c5.676,-12.173 6.272,-25.827 1.679,-38.448c-15.287,-41.991 -74.016,-44.385 -92.823,-4.053l-48.603,104.227l-58.996,0c-25.756,0 -44.733,24.121 -38.618,49.175l52.713,216.036c5.979,24.508 27.774,41.625 53.001,41.625l294.918,0c25.227,0 47.021,-17.117 53.001,-41.625l52.713,-216.036c6.107,-25.021 -12.828,-49.175 -38.618,-49.175zm-169.74,-75.25c-5.641,-12.097 3.238,-26.009 16.543,-26.009c6.89,0 13.499,3.911 16.598,10.555l42.296,90.704l-40.347,0l-35.09,-75.25zm-122.77,-15.454c4.261,-9.137 15.16,-13.104 24.297,-8.843s13.104,15.16 8.844,24.297l-35.09,75.25l-40.347,0l42.296,-90.704zm300.04,132.294l-52.713,216.037c-2.473,10.133 -11.483,17.209 -21.913,17.209l-294.918,0c-10.43,0 -19.44,-7.077 -21.913,-17.21l-52.713,-216.037c-1.191,-4.878 2.489,-9.589 7.53,-9.589l429.109,0c5.043,0 8.721,4.712 7.531,9.59z"/>
   <path id="svg_9" d="m254.326,248.338c-8.837,0 -16,7.164 -16,16l0,113.232c0,8.836 7.163,16 16,16s16,-7.164 16,-16l0,-113.232c0,-8.836 -7.163,-16 -16,-16z"/>
   <path id="svg_10" d="m364.476,248.723c-8.622,-1.926 -17.178,3.501 -19.105,12.124l-25.314,113.233c-2.23,9.976 5.356,19.494 15.629,19.494c7.326,0 13.935,-5.065 15.6,-12.513l25.314,-113.232c1.927,-8.624 -3.5,-17.177 -12.124,-19.106z"/>
   <path id="svg_11" d="m163.281,260.848c-1.929,-8.624 -10.479,-14.053 -19.105,-12.124c-8.623,1.928 -14.051,10.482 -12.123,19.105l25.314,113.232c1.665,7.448 8.272,12.513 15.6,12.513c10.263,0 17.861,-9.51 15.629,-19.494l-25.315,-113.232z"/>
  </g>
 </g>
</svg>